<svg xmlns="http://www.w3.org/2000/svg" width="256" height="256" viewBox="0 0 256 256"><circle cx="128" cy="128" r="119"/><path fill="#fff" d="M145.8 100.9h-35.6v-64L128 24.1l17.8 12.8v64z"/><path fill="#fff" d="M159.1 122.6H96.9V76.4l31.1-9.3 31.1 9.3v46.2z"/><path d="M128 157.9a9.3 9.3 0 0 1-5.5-1.8L6.2 72.8a9.4 9.4 0 0 1 5.5-17.1 9.2 9.2 0 0 1 3.9.9l112.4 51 112.4-51a9.2 9.2 0 0 1 3.9-.9 9.4 9.4 0 0 1 5.5 17.1l-116.3 83.3a9.3 9.3 0 0 1-5.5 1.8z"/><path fill="#fff" d="M128 118L11.7 65.1 128 148.4l116.3-83.3L128 118z"/><path fill="#fff" d="M89 106.8H74.5V58.3l7.2-9.7 7.3 9.7v48.5zm92.5 0H167V58.3l7.3-9.7 7.2 9.7v48.5zm-63.4 42.3L89 137.2l4 11.9 19.8 5.3 5.3-5.3zm19.8 0l29.1-11.9-4 11.9-19.8 5.3-5.3-5.3zm29.8 9.2l-31.8 6.6-7.9-7.9-7.9 7.9-31.8-6.6-3.9 6.6 18.5 42.3 25.1 9.3 25.1-9.3 18.5-42.3-3.9-6.6z"/><path fill="#fff" d="M77.1 123.3L70.5 159l29.1 63.4L48 157.7l11.9-47.6 17.2 13.2z"/><path fill="#fff" d="M44.6 116h16v34.4h-16a6.5 6.5 0 0 1-6.5-6.5v-21.4a6.5 6.5 0 0 1 6.5-6.5zm2.556 53.85l10.744-8.007 25.28 33.915-10.744 8.008a6.5 6.5 0 0 1-9.096-1.327l-17.51-23.492a6.5 6.5 0 0 1 1.326-9.096zM178.9 123.3l6.6 35.7-29.1 63.4 51.6-64.7-11.9-47.6-17.2 13.2z"/><path fill="#fff" d="M211.4 150.4h-16V116h16a6.5 6.5 0 0 1 6.5 6.5v21.4a6.5 6.5 0 0 1-6.5 6.5zm-27.866 53.38l-10.664-7.948 25.28-33.915 10.664 7.949a6.5 6.5 0 0 1 1.327 9.096l-17.51 23.492a6.5 6.5 0 0 1-9.097 1.327z"/></svg>